<svg width="38" height="38" viewBox="0 0 38 38" fill="none" xmlns="http://www.w3.org/2000/svg">
<mask id="mask0_2643_9647" style="mask-type:luminance" maskUnits="userSpaceOnUse" x="0" y="0" width="38" height="38">
<path d="M38 0H0V38H38V0Z" fill="white"/>
</mask>
<g mask="url(#mask0_2643_9647)">
<path d="M8.43902 30.7432C8.26485 30.7432 8.07485 30.6957 7.91652 30.6165L4.40152 28.859C4.00568 28.6532 3.75235 28.2415 3.75235 27.7982V23.3965C3.75235 22.7473 4.29068 22.209 4.93985 22.209C5.58902 22.209 6.12735 22.7473 6.12735 23.3965V27.054L8.97735 28.4948C9.56318 28.7798 9.80068 29.4923 9.49985 30.0782C9.29402 30.4898 8.88235 30.7432 8.43902 30.7432Z" fill="white"/>
<path d="M18.9998 36.0189C18.9048 36.0189 18.8098 36.003 18.7306 35.9872C18.6356 35.9714 18.5406 35.9239 18.4456 35.8764L14.9464 34.1347C14.3606 33.8339 14.1231 33.1214 14.4081 32.5355C14.7089 31.9497 15.4214 31.7122 16.0073 31.9972L17.8123 32.8997V30.4297C17.8123 29.7805 18.3506 29.2422 18.9998 29.2422C19.649 29.2422 20.1873 29.7805 20.1873 30.4297V32.8997L21.9923 31.9972C22.5781 31.7122 23.2906 31.9497 23.5915 32.5355C23.8923 33.1214 23.6548 33.8339 23.0531 34.1347L19.554 35.8764C19.459 35.9239 19.364 35.9555 19.269 35.9872C19.174 36.003 19.0948 36.0189 18.9998 36.0189Z" fill="white"/>
<path d="M29.5617 30.7468C29.1342 30.7468 28.7067 30.5093 28.5009 30.0977C28.2 29.5118 28.4375 28.7993 29.0392 28.4985L31.905 27.0735V23.416C31.905 22.7668 32.4434 22.2285 33.0925 22.2285C33.7417 22.2285 34.28 22.7668 34.28 23.416V27.8177C34.28 28.261 34.0267 28.6727 33.6309 28.8785L30.0842 30.6202C29.91 30.6993 29.7359 30.7468 29.5617 30.7468Z" fill="white"/>
<path d="M18.9998 22.8286C18.3506 22.8286 17.8123 22.2903 17.8123 21.6411V17.9836L14.9464 16.5586C14.3606 16.2578 14.1231 15.5452 14.4081 14.9594C14.7089 14.3736 15.4214 14.1361 16.0073 14.4211L18.9998 15.9094L21.9923 14.4211C22.5781 14.1361 23.2906 14.3577 23.5915 14.9594C23.8923 15.5452 23.6548 16.2578 23.0531 16.5586L20.1873 17.9836V21.6411C20.1873 22.2903 19.649 22.8286 18.9998 22.8286Z" fill="white"/>
<path d="M4.92499 15.7818C4.27582 15.7818 3.73749 15.2435 3.73749 14.5943V10.2243V10.2085C3.73749 10.1135 3.75332 10.0185 3.76915 9.9393C3.80082 9.7968 3.84832 9.68596 3.91165 9.57513C3.95915 9.49596 4.02249 9.43263 4.08582 9.3693C4.14915 9.30596 4.22832 9.24263 4.30749 9.19513C4.33915 9.1793 4.38665 9.14763 4.41832 9.1318L7.91749 7.3743C8.50332 7.0893 9.21582 7.3268 9.50082 7.91263C9.80165 8.49846 9.56415 9.21096 8.97832 9.49596L7.58499 10.1926L8.97832 10.8893C9.56415 11.1901 9.80165 11.9026 9.50082 12.4885C9.21582 13.0743 8.50332 13.3118 7.91749 13.0268L6.11249 12.1243V14.5943C6.11249 15.2593 5.58999 15.7818 4.92499 15.7818Z" fill="white"/>
<path d="M22.5166 6.11204C22.3424 6.11204 22.1524 6.06454 21.9941 5.98538L19.0016 4.49704L16.0091 5.98538C15.4232 6.28621 14.7107 6.04871 14.4257 5.46288C14.1248 4.87704 14.3623 4.16454 14.9482 3.86371L18.4633 2.10621C18.7958 1.93204 19.1916 1.93204 19.5241 2.10621L23.0391 3.86371C23.6249 4.16454 23.8624 4.87704 23.5774 5.46288C23.3716 5.87454 22.9599 6.11204 22.5166 6.11204Z" fill="white"/>
<path d="M33.0771 15.7818C32.4279 15.7818 31.8896 15.2435 31.8896 14.5943V12.1243L30.0846 13.0268C29.4988 13.3118 28.7863 13.0743 28.5013 12.4885C28.2004 11.9026 28.4379 11.1901 29.0396 10.8893L30.4329 10.1926L29.0238 9.49596C28.4379 9.21096 28.2004 8.49846 28.5013 7.91263C28.8021 7.3268 29.4988 7.0893 30.0846 7.3743L33.5838 9.11596C33.6154 9.1318 33.6629 9.14763 33.6946 9.1793C33.7896 9.2268 33.8688 9.30596 33.9479 9.38513C33.9954 9.44846 34.0429 9.5118 34.0904 9.57513C34.1538 9.68596 34.2013 9.7968 34.2329 9.92346C34.2488 10.0185 34.2646 10.1135 34.2646 10.1926V10.2085V14.5785C34.2646 15.2593 33.7263 15.7818 33.0771 15.7818Z" fill="white"/>
</g>
</svg>
